<mxfile host="app.diagrams.net" modified="2020-11-27T13:09:52.555Z" agent="5.0 (Windows NT 10.0; Win64; x64) AppleWebKit/537.36 (KHTML, like Gecko) Chrome/87.0.4280.67 Safari/537.36" etag="nbneVRTCEUAX-zrmp5eA" version="13.10.1" type="github">
  <diagram id="Hy73ntW-DNVwSF-V0ujH" name="Page-1">
    <mxGraphModel dx="870" dy="609" grid="1" gridSize="10" guides="1" tooltips="1" connect="1" arrows="1" fold="1" page="1" pageScale="1" pageWidth="1654" pageHeight="2336" math="0" shadow="0">
      <root>
        <mxCell id="0" />
        <mxCell id="1" parent="0" />
        <mxCell id="DWTZ_1Sd0oiG_1_d-L0X-1" value="Parnters" style="html=1;" vertex="1" parent="1">
          <mxGeometry x="370" y="110" width="110" height="50" as="geometry" />
        </mxCell>
        <mxCell id="DWTZ_1Sd0oiG_1_d-L0X-6" style="edgeStyle=orthogonalEdgeStyle;rounded=0;orthogonalLoop=1;jettySize=auto;html=1;endSize=12;endArrow=block;endFill=0;" edge="1" parent="1" source="DWTZ_1Sd0oiG_1_d-L0X-2" target="DWTZ_1Sd0oiG_1_d-L0X-1">
          <mxGeometry relative="1" as="geometry">
            <Array as="points">
              <mxPoint x="390" y="190" />
              <mxPoint x="425" y="190" />
            </Array>
          </mxGeometry>
        </mxCell>
        <mxCell id="DWTZ_1Sd0oiG_1_d-L0X-2" value="Partner" style="html=1;" vertex="1" parent="1">
          <mxGeometry x="350" y="240" width="110" height="50" as="geometry" />
        </mxCell>
        <mxCell id="DWTZ_1Sd0oiG_1_d-L0X-10" style="edgeStyle=orthogonalEdgeStyle;rounded=0;orthogonalLoop=1;jettySize=auto;html=1;entryX=1;entryY=0.5;entryDx=0;entryDy=0;endSize=12;endArrow=block;endFill=0;" edge="1" parent="1" source="DWTZ_1Sd0oiG_1_d-L0X-9" target="DWTZ_1Sd0oiG_1_d-L0X-2">
          <mxGeometry relative="1" as="geometry" />
        </mxCell>
        <mxCell id="DWTZ_1Sd0oiG_1_d-L0X-9" value="Children" style="html=1;" vertex="1" parent="1">
          <mxGeometry x="550" y="240" width="110" height="50" as="geometry" />
        </mxCell>
        <mxCell id="DWTZ_1Sd0oiG_1_d-L0X-12" style="edgeStyle=orthogonalEdgeStyle;rounded=0;orthogonalLoop=1;jettySize=auto;html=1;endArrow=block;endFill=0;endSize=12;" edge="1" parent="1" source="DWTZ_1Sd0oiG_1_d-L0X-11" target="DWTZ_1Sd0oiG_1_d-L0X-9">
          <mxGeometry relative="1" as="geometry" />
        </mxCell>
        <mxCell id="DWTZ_1Sd0oiG_1_d-L0X-11" value="Child" style="html=1;" vertex="1" parent="1">
          <mxGeometry x="550" y="360" width="110" height="50" as="geometry" />
        </mxCell>
        <mxCell id="DWTZ_1Sd0oiG_1_d-L0X-14" style="edgeStyle=orthogonalEdgeStyle;rounded=0;orthogonalLoop=1;jettySize=auto;html=1;endArrow=none;endFill=0;endSize=12;" edge="1" parent="1" source="DWTZ_1Sd0oiG_1_d-L0X-13" target="DWTZ_1Sd0oiG_1_d-L0X-2">
          <mxGeometry relative="1" as="geometry" />
        </mxCell>
        <mxCell id="DWTZ_1Sd0oiG_1_d-L0X-13" value="Translation Values" style="html=1;" vertex="1" parent="1">
          <mxGeometry x="140" y="280" width="110" height="50" as="geometry" />
        </mxCell>
        <mxCell id="DWTZ_1Sd0oiG_1_d-L0X-16" style="edgeStyle=orthogonalEdgeStyle;rounded=0;orthogonalLoop=1;jettySize=auto;html=1;endArrow=none;endFill=0;endSize=12;" edge="1" parent="1" source="DWTZ_1Sd0oiG_1_d-L0X-15" target="DWTZ_1Sd0oiG_1_d-L0X-11">
          <mxGeometry relative="1" as="geometry">
            <Array as="points">
              <mxPoint x="405" y="390" />
            </Array>
          </mxGeometry>
        </mxCell>
        <mxCell id="DWTZ_1Sd0oiG_1_d-L0X-15" value="Translation Values" style="html=1;" vertex="1" parent="1">
          <mxGeometry x="350" y="430" width="110" height="50" as="geometry" />
        </mxCell>
      </root>
    </mxGraphModel>
  </diagram>
</mxfile>
